<svg width="16" height="16" viewBox="0 0 16 16" fill="none" xmlns="http://www.w3.org/2000/svg">
<path d="M15.0007 8.00076C15.0005 11.8668 11.8663 15.0008 8.00027 15.0006C4.13423 15.0004 1.00026 11.8662 1.00043 8.00015C1.0006 4.13411 4.13484 1.00014 8.00088 1.00031C11.8669 1.00047 15.0009 4.13472 15.0007 8.00076Z" stroke="white" stroke-linecap="round" stroke-linejoin="round"/>
<path d="M10.8005 8.00039C10.8003 11.8664 9.54655 15.0005 8.00013 15.0004C6.45371 15.0003 5.20021 11.8662 5.20038 8.00015C5.20055 4.13411 6.45432 1.00005 8.00074 1.00012C9.54716 1.00019 10.8007 4.13435 10.8005 8.00039Z" stroke="white" stroke-linecap="round" stroke-linejoin="round"/>
<path d="M1.70044 5.2002L14.3007 5.20075" stroke="white" stroke-linecap="round" stroke-linejoin="round"/>
<path d="M1.7002 10.0996L14.3005 10.1002" stroke="white" stroke-linecap="round" stroke-linejoin="round"/>
</svg>
